<?xml version="1.0" standalone="no"?>
<!DOCTYPE svg PUBLIC "-//W3C//DTD SVG 20010904//EN"
 "http://www.w3.org/TR/2001/REC-SVG-20010904/DTD/svg10.dtd">
<svg version="1.0" xmlns="http://www.w3.org/2000/svg"
 width="1148.000000pt" height="920.000000pt" viewBox="0 0 1148.000000 920.000000"
 preserveAspectRatio="xMidYMid meet">

<g transform="translate(0.000000,920.000000) scale(0.100000,-0.100000)"
fill="#000000" stroke="none">
<path d="M0 4600 l0 -4600 5740 0 5740 0 0 4600 0 4600 -5740 0 -5740 0 0
-4600z m6515 2730 l0 -105 -772 -3 -773 -2 0 110 0 110 773 -2 772 -3 0 -105z
m-1077 -337 l-3 -128 -105 0 -105 0 -3 128 -3 127 111 0 111 0 -3 -127z m412
-3 l0 -131 -107 3 -108 3 -3 114 c-1 63 0 121 2 128 4 10 33 13 111 13 l105 0
0 -130z m418 3 l-3 -128 -105 0 -105 0 -3 128 -3 127 111 0 111 0 -3 -127z
m-830 -1070 l2 -813 415 0 415 0 0 -110 0 -110 -525 0 -525 0 0 925 0 926 108
-3 107 -3 3 -812z m414 180 l3 -638 208 -3 207 -2 0 -110 0 -110 -320 0 -320
0 0 743 c0 409 3 747 7 750 3 4 53 7 110 7 l103 0 2 -637z m416 60 l2 -573
-110 0 -110 0 0 575 0 576 108 -3 107 -3 3 -572z m-828 -1528 l0 -125 -110 0
-110 0 0 125 0 125 110 0 110 0 0 -125z m410 0 l0 -125 -110 0 -110 0 0 125 0
125 110 0 110 0 0 -125z m420 0 l0 -125 -110 0 -110 0 0 125 0 125 110 0 110
0 0 -125z m245 -335 l0 -105 -772 -3 -773 -2 0 110 0 110 773 -2 772 -3 0
-105z m-2500 -669 c52 -24 88 -58 117 -112 21 -41 23 -57 26 -261 4 -239 -4
-301 -44 -360 -44 -63 -97 -92 -174 -96 -86 -5 -126 8 -177 59 -77 75 -78 82
-78 364 0 237 1 252 22 290 27 50 78 99 123 119 48 21 136 20 185 -3z m752 -5
c87 -44 133 -132 133 -253 l0 -63 -74 0 -73 0 -5 70 c-4 56 -10 76 -28 95 -52
55 -140 15 -140 -63 0 -55 26 -83 128 -139 47 -26 103 -62 124 -81 103 -93 84
-269 -40 -357 -37 -25 -55 -30 -116 -33 -84 -5 -123 9 -176 61 -45 43 -69 102
-72 173 l-3 59 75 0 75 0 5 -54 c7 -62 33 -91 84 -91 37 0 70 30 80 71 8 38
-21 70 -107 118 -116 64 -152 94 -181 152 -33 66 -36 162 -7 225 21 46 82 102
132 121 43 16 146 10 186 -11z m739 -12 c30 -18 60 -48 78 -78 26 -41 30 -60
34 -137 l4 -89 -75 0 -75 0 -4 70 c-3 56 -8 74 -28 95 -25 26 -67 33 -99 15
-43 -23 -51 -119 -13 -153 9 -8 58 -39 107 -67 107 -61 141 -91 166 -145 51
-110 -9 -262 -123 -309 -53 -22 -150 -21 -196 3 -84 44 -132 124 -132 223 l0
59 73 -3 72 -3 3 -30 c7 -81 32 -115 85 -115 38 0 72 29 82 70 9 39 -24 73
-123 127 -105 59 -154 105 -176 168 -46 137 12 275 135 322 58 22 150 12 205
-23z m2110 12 c90 -42 133 -120 134 -243 l0 -73 -75 0 -75 0 0 61 c0 88 -27
128 -85 128 -34 0 -56 -14 -73 -46 -34 -63 -1 -113 113 -177 152 -84 195 -138
195 -242 0 -134 -100 -234 -235 -234 -136 0 -222 87 -233 232 l-5 68 77 0 76
0 0 -44 c0 -60 37 -106 85 -106 25 0 40 8 59 31 51 61 33 90 -102 168 -133 76
-174 126 -188 229 -25 191 159 329 332 248z m714 3 c97 -44 140 -118 140 -242
l0 -78 -72 3 -73 3 -3 50 c-1 28 -5 60 -7 73 -15 66 -95 84 -139 31 -55 -65
-25 -125 95 -189 96 -51 166 -111 185 -157 31 -74 8 -195 -48 -252 -51 -52
-98 -71 -175 -71 -82 0 -131 24 -180 88 -37 49 -53 97 -53 165 l0 47 75 0 75
0 0 -44 c0 -59 37 -106 84 -106 58 0 101 64 78 115 -7 14 -50 45 -110 79 -55
31 -115 73 -135 95 -38 43 -67 121 -67 180 2 165 180 278 330 210z m-5150
-329 l0 -339 123 -3 122 -3 3 -72 3 -73 -201 0 -200 0 0 415 0 415 75 0 75 0
0 -340z m2885 0 l0 -335 120 -3 c80 -2 122 -7 127 -15 9 -14 11 -99 2 -121 -5
-14 -33 -16 -205 -16 l-199 0 0 408 c0 225 3 412 7 416 4 4 39 5 78 4 l70 -3
0 -335z m935 265 l0 -74 -122 -3 -123 -3 0 -85 0 -85 123 -3 122 -3 0 -74 0
-74 -122 -3 -123 -3 0 -95 0 -95 123 -3 122 -3 0 -74 0 -75 -200 0 -200 0 0
415 0 415 200 0 200 0 0 -75z"/>
<path d="M3865 3475 l-25 -24 0 -226 0 -226 25 -24 c46 -47 116 -25 135 43 12
44 13 339 1 402 -15 77 -86 106 -136 55z"/>
</g>
</svg>
